<?xml version="1.0"?>
<svg width="171" height="213" xmlns="http://www.w3.org/2000/svg" xmlns:svg="http://www.w3.org/2000/svg">
 <title>logo</title>
 <g class="layer">
  <title>Layer 1</title>
  <g id="svg_190">
   <g fill="None" fill-opacity="0" id="svg_3" stroke="#020306" stroke-width="0.3">
    <path d="m46.66,50c-0.9,1.48 -2.05,1.76 -3,3c3.24,-1.44 8.1,-0.2 7,-5c3.16,1.62 6.63,2.06 10,3c-0.07,-3.04 3.3,-4.61 6,-4c1.37,4.51 -2.61,9.6 -1,13c1.63,-5.38 5.25,-9.44 12,-8c0,1.33 0,2.67 0,4c0.58,0.83 1.43,1.59 1,3c1.81,-3.48 9.47,-6.69 16,-3c-1.66,4.26 0.92,12.29 -4,18c4.55,-5.08 7.39,-12.36 9,-19c5.63,0.2 13.82,0.62 13,7c-0.19,1.5 -0.82,2.58 -2,5c5.28,-5.46 10.79,-5.44 17,-2c-1.07,1.8 1.06,3.31 1,5c1.92,1.12 7.13,0.59 9.25,4.75c2.11,4.17 4.33,5.5 6.75,9.25c-2.54,-5.74 -5.59,-14.51 -13,-17c4.82,-7.14 16.77,5.55 17,1c-10.76,-11.77 -25.69,-17.41 -36,-29c4.15,9.31 -6.29,3.89 -11,3c3.53,-24.58 -30,-23.36 -35,-42c-2.74,6.63 3.06,10.32 7.08,15.92c4.02,5.59 5.19,9.29 6.92,17.08c1.72,7.79 -10.17,10.4 -10.08,2.08c0.1,-8.33 -8.08,-8.1 -11.92,-12.08c0,10.15 -6.93,18.67 -12,27z" id="svg_4"/>
   </g>
   <g fill="None" fill-opacity="0" id="svg_5" stroke="#850309" stroke-width="0.3">
    <path d="m46.66,50c-41.74,18.47 -62.08,75.84 -33,113c-4.48,-11.03 -8.3,-23.86 -9,-36c-0.7,-12.14 2.73,-26.51 9.08,-35.92c6.35,-9.41 12.08,-18.65 21.92,-21.08c-2.15,17.33 9.93,34.88 26,40c-8.42,-9.05 -13.19,-20.57 -13,-33c4.89,2.63 6.69,10.82 11.23,15.77c4.54,4.95 7.68,9.57 13.54,13.46c5.86,3.89 13.56,6.91 21.23,5.77c-9.35,-11.95 -8.91,-25.5 -4,-38c4.92,-5.71 2.34,-13.74 4,-18c-6.53,-3.69 -14.19,-0.48 -16,3c0.43,-1.41 -0.42,-2.17 -1,-3c-0.23,5.47 -7.01,10.27 -7.33,16.67c-0.32,6.41 0.32,13.6 4.33,19.33c-13.93,-3.91 -12.82,-21.05 -9,-32c-1.61,-3.4 2.37,-8.49 1,-13c-2.7,-0.61 -6.07,0.96 -6,4c-3.37,-0.94 -6.84,-1.38 -10,-3c1.1,4.8 -3.76,3.56 -7,5c0.95,-1.24 2.1,-1.52 3,-3z" id="svg_6"/>
   </g>
   <g fill="None" fill-opacity="0" id="svg_7" stroke="#020306" stroke-opacity="0.01" stroke-width="0.3">
    <path d="m65.66,60c-3.82,10.95 -4.93,28.09 9,32c-4.01,-5.73 -4.65,-12.92 -4.33,-19.33c0.32,-6.4 7.1,-11.2 7.33,-16.67c0,-1.33 0,-2.67 0,-4c-6.75,-1.44 -10.37,2.62 -12,8z" id="svg_8"/>
   </g>
   <g fill="None" fill-opacity="0" id="svg_9" stroke="#850309" stroke-width="0.3">
    <path d="m128.66,70c0.06,-1.69 -2.07,-3.2 -1,-5c-6.21,-3.44 -11.72,-3.46 -17,2c1.18,-2.42 1.81,-3.5 2,-5c-11.93,11.7 -17.48,29.69 -9,45c4.27,-4.66 8.6,-12.01 14.75,-16.25c6.15,-4.23 10.41,-13.56 10.25,-20.75z" id="svg_10"/>
   </g>
   <g fill="None" fill-opacity="0" id="svg_11" stroke="#850309" stroke-width="0.3">
    <path d="m144.66,84c18.65,28.78 14.07,75.35 -16,94c2.61,-13.23 10.5,-24.33 17,-36c-10.04,1.93 -14.49,17 -24.99,17.99c-10.51,1 -14.25,-18 -22.01,-20.99c0.51,-6.81 6.74,-11.44 8,-18c-12.07,1.48 -19.96,23.96 -32.77,21.77c-12.81,-2.19 -15.7,-23.74 -26.23,-27.77c1.46,8.06 13.11,22.65 4.08,28.08c-9.03,5.44 -14.34,18.01 -24.33,13.17c-9.98,-4.84 -9.22,-17.35 -18.75,-22.25c1.43,6.09 5.1,10.95 7.07,16.93c1.98,5.98 2.01,14.1 2.93,19.07c0.67,1.16 3.13,1.8 2,4c7.34,1.16 15.74,5.41 21,-3c2.35,-6.87 5.1,-10.89 8.31,-17.69c3.2,-6.81 8.95,-12.59 9.69,-2.31c0.74,10.29 2,14.79 2,25c0.59,3.93 2.94,5.89 6,7c3.57,0.27 3.32,-4.5 6,-3c2.46,-3.04 3.32,-8.78 10,-6c2.9,-10.75 3.71,-14.69 8.32,-25.68c4.61,-10.98 12.02,-1 13.61,8.75c1.58,9.75 4.12,21.34 3.07,31.93c11.39,-0.3 22.2,8.85 33,1c-1.11,2.41 -3.96,3.62 -5,6c10.66,-5.33 18.58,-20.67 25.69,-33.31c7.12,-12.63 9.63,-38.58 7.24,-53.62c-2.4,-15.03 -9.04,-30.81 -20.93,-41.07c-0.23,4.55 -12.18,-8.14 -17,-1c7.41,2.49 10.46,11.26 13,17z" id="svg_12"/>
   </g>
   <g fill="None" fill-opacity="0" id="svg_13" stroke="#850309" stroke-width="0.3">
    <path d="m78.66,115c-11,-1.84 -15.04,14.2 -4,17c11.03,2.8 15.23,-15.12 4,-17z" id="svg_14"/>
   </g>
   <g fill="None" fill-opacity="0" id="svg_15" stroke="#850309" stroke-width="0.3">
    <path d="m35.66,134c-9.69,-2.21 -13.36,10.83 -4.67,13.67c8.69,2.83 13.21,-11.72 4.67,-13.67z" id="svg_16"/>
   </g>
   <g fill="None" fill-opacity="0" id="svg_17" stroke="#850309" stroke-width="0.3">
    <path d="m124.66,138c-8.47,-3.1 -14.93,6.88 -7.07,12.07c7.85,5.2 14.58,-9.32 7.07,-12.07z" id="svg_18"/>
   </g>
   <g fill="None" fill-opacity="0" id="svg_19" stroke="#020306" stroke-opacity="0.01" stroke-width="0.3">
    <path d="m73.66,180c-0.48,5.07 3.2,10.53 8,12c-6.27,4.94 -14.7,2.65 -21,-1c2.13,-4.52 0.48,-10.06 1,-15c0,-10.21 -1.26,-14.71 -2,-25c-0.74,-10.28 -6.49,-4.5 -9.69,2.31c-3.21,6.8 -5.96,10.82 -8.31,17.69c-1.53,4.47 -2.96,9.1 -3,14c-11.53,-5.45 -8.91,9.55 -4.75,12.75c4.16,3.2 20.53,7.14 19.41,0.57c-1.12,-6.57 -17.31,-4.98 -18.66,-10.32c11.12,-0.76 17.52,7.52 26.25,12.75c8.72,5.23 21.48,7.23 30.98,0.48c9.5,-6.75 -6.73,-16.24 -13.23,-19.23c3.14,-5.08 6.11,0.03 11.23,2.77c5.12,2.74 12.3,5.28 18.77,4.23c1.05,-10.59 -1.49,-22.18 -3.07,-31.93c-1.59,-9.75 -9,-19.73 -13.61,-8.75c-4.61,10.99 -5.42,14.93 -8.32,25.68c-6.68,-2.78 -7.54,2.96 -10,6z" id="svg_20"/>
   </g>
   <g fill="None" fill-opacity="0" id="svg_21" stroke="#020306" stroke-width="0.3">
    <path d="m136.66,196c1.04,-2.38 3.89,-3.59 5,-6c-10.8,7.85 -21.61,-1.3 -33,-1c-6.47,1.05 -13.65,-1.49 -18.77,-4.23c-5.12,-2.74 -8.09,-7.85 -11.23,-2.77c6.5,2.99 22.73,12.48 13.23,19.23c-9.5,6.75 -22.26,4.75 -30.98,-0.48c-8.73,-5.23 -15.13,-13.51 -26.25,-12.75c1.35,5.34 17.54,3.75 18.66,10.32c1.12,6.57 -15.25,2.63 -19.41,-0.57c-4.16,-3.2 -6.78,-18.2 4.75,-12.75c0.04,-4.9 1.47,-9.53 3,-14c-5.26,8.41 -13.66,4.16 -21,3c1.13,-2.2 -1.33,-2.84 -2,-4c3.17,8.07 -2.15,22.1 4.31,28.69c6.45,6.6 20.47,2.75 28.69,4.31c1.74,5.52 -6.05,2.33 -6,6c15.72,-2.14 34.47,5.38 50,3c15.53,-2.38 29,-6.14 41,-16z" id="svg_22"/>
   </g>
   <g fill="None" fill-opacity="0" id="svg_23" stroke="#020306" stroke-width="0.3">
    <path d="m73.66,180c-2.68,-1.5 -2.43,3.27 -6,3c-3.06,-1.11 -5.41,-3.07 -6,-7c-0.52,4.94 1.13,10.48 -1,15c6.3,3.65 14.73,5.94 21,1c-4.8,-1.47 -8.48,-6.93 -8,-12z" id="svg_24"/>
   </g>
   <g fill="#020306" id="svg_97" stroke="None">
    <path d="m46.66,50c-0.9,1.48 -2.05,1.76 -3,3c3.24,-1.44 8.1,-0.2 7,-5c3.16,1.62 6.63,2.06 10,3c-0.07,-3.04 3.3,-4.61 6,-4c1.37,4.51 -2.61,9.6 -1,13c1.63,-5.38 5.25,-9.44 12,-8c0,1.33 0,2.67 0,4c0.58,0.83 1.43,1.59 1,3c1.81,-3.48 9.47,-6.69 16,-3c-1.66,4.26 0.92,12.29 -4,18c4.55,-5.08 7.39,-12.36 9,-19c5.63,0.2 13.82,0.62 13,7c-0.19,1.5 -0.82,2.58 -2,5c5.28,-5.46 10.79,-5.44 17,-2c-1.07,1.8 1.06,3.31 1,5c1.92,1.12 7.13,0.59 9.25,4.75c2.11,4.17 4.33,5.5 6.75,9.25c-2.54,-5.74 -5.59,-14.51 -13,-17c4.82,-7.14 16.77,5.55 17,1c-10.76,-11.77 -25.69,-17.41 -36,-29c4.15,9.31 -6.29,3.89 -11,3c3.53,-24.58 -30,-23.36 -35,-42c-2.74,6.63 3.06,10.32 7.08,15.92c4.02,5.59 5.19,9.29 6.92,17.08c1.72,7.79 -10.17,10.4 -10.08,2.08c0.1,-8.33 -8.08,-8.1 -11.92,-12.08c0,10.15 -6.93,18.67 -12,27z" id="svg_98"/>
   </g>
   <g fill="#850309" id="svg_99" stroke="None">
    <path d="m46.66,50c-41.74,18.47 -62.08,75.84 -33,113c-4.48,-11.03 -8.3,-23.86 -9,-36c-0.7,-12.14 2.73,-26.51 9.08,-35.92c6.35,-9.41 12.08,-18.65 21.92,-21.08c-2.15,17.33 9.93,34.88 26,40c-8.42,-9.05 -13.19,-20.57 -13,-33c4.89,2.63 6.69,10.82 11.23,15.77c4.54,4.95 7.68,9.57 13.54,13.46c5.86,3.89 13.56,6.91 21.23,5.77c-9.35,-11.95 -8.91,-25.5 -4,-38c4.92,-5.71 2.34,-13.74 4,-18c-6.53,-3.69 -14.19,-0.48 -16,3c0.43,-1.41 -0.42,-2.17 -1,-3c-0.23,5.47 -7.01,10.27 -7.33,16.67c-0.32,6.41 0.32,13.6 4.33,19.33c-13.93,-3.91 -12.82,-21.05 -9,-32c-1.61,-3.4 2.37,-8.49 1,-13c-2.7,-0.61 -6.07,0.96 -6,4c-3.37,-0.94 -6.84,-1.38 -10,-3c1.1,4.8 -3.76,3.56 -7,5c0.95,-1.24 2.1,-1.52 3,-3z" id="svg_100"/>
   </g>
   <g fill="#020306" fill-opacity="0.01" id="svg_101" stroke="None">
    <path d="m65.66,60c-3.82,10.95 -4.93,28.09 9,32c-4.01,-5.73 -4.65,-12.92 -4.33,-19.33c0.32,-6.4 7.1,-11.2 7.33,-16.67c0,-1.33 0,-2.67 0,-4c-6.75,-1.44 -10.37,2.62 -12,8z" id="svg_102"/>
   </g>
   <g fill="#850309" id="svg_103" stroke="None">
    <path d="m128.66,70c0.06,-1.69 -2.07,-3.2 -1,-5c-6.21,-3.44 -11.72,-3.46 -17,2c1.18,-2.42 1.81,-3.5 2,-5c-11.93,11.7 -17.48,29.69 -9,45c4.27,-4.66 8.6,-12.01 14.75,-16.25c6.15,-4.23 10.41,-13.56 10.25,-20.75z" id="svg_104"/>
   </g>
   <g fill="#850309" id="svg_105" stroke="None">
    <path d="m144.66,84c18.65,28.78 14.07,75.35 -16,94c2.61,-13.23 10.5,-24.33 17,-36c-10.04,1.93 -14.49,17 -24.99,17.99c-10.51,1 -14.25,-18 -22.01,-20.99c0.51,-6.81 6.74,-11.44 8,-18c-12.07,1.48 -19.96,23.96 -32.77,21.77c-12.81,-2.19 -15.7,-23.74 -26.23,-27.77c1.46,8.06 13.11,22.65 4.08,28.08c-9.03,5.44 -14.34,18.01 -24.33,13.17c-9.98,-4.84 -9.22,-17.35 -18.75,-22.25c1.43,6.09 5.1,10.95 7.07,16.93c1.98,5.98 2.01,14.1 2.93,19.07c0.67,1.16 3.13,1.8 2,4c7.34,1.16 15.74,5.41 21,-3c2.35,-6.87 5.1,-10.89 8.31,-17.69c3.2,-6.81 8.95,-12.59 9.69,-2.31c0.74,10.29 2,14.79 2,25c0.59,3.93 2.94,5.89 6,7c3.57,0.27 3.32,-4.5 6,-3c2.46,-3.04 3.32,-8.78 10,-6c2.9,-10.75 3.71,-14.69 8.32,-25.68c4.61,-10.98 12.02,-1 13.61,8.75c1.58,9.75 4.12,21.34 3.07,31.93c11.39,-0.3 22.2,8.85 33,1c-1.11,2.41 -3.96,3.62 -5,6c10.66,-5.33 18.58,-20.67 25.69,-33.31c7.12,-12.63 9.63,-38.58 7.24,-53.62c-2.4,-15.03 -9.04,-30.81 -20.93,-41.07c-0.23,4.55 -12.18,-8.14 -17,-1c7.41,2.49 10.46,11.26 13,17z" id="svg_106"/>
   </g>
   <g fill="#850309" id="svg_107" stroke="None">
    <path d="m78.66,115c-11,-1.84 -15.04,14.2 -4,17c11.03,2.8 15.23,-15.12 4,-17z" id="svg_108"/>
   </g>
   <g fill="#850309" id="svg_109" stroke="None">
    <path d="m35.66,134c-9.69,-2.21 -13.36,10.83 -4.67,13.67c8.69,2.83 13.21,-11.72 4.67,-13.67z" id="svg_110"/>
   </g>
   <g fill="#850309" id="svg_111" stroke="None">
    <path d="m124.66,138c-8.47,-3.1 -14.93,6.88 -7.07,12.07c7.85,5.2 14.58,-9.32 7.07,-12.07z" id="svg_112"/>
   </g>
   <g fill="#020306" fill-opacity="0.01" id="svg_113" stroke="None">
    <path d="m73.66,180c-0.48,5.07 3.2,10.53 8,12c-6.27,4.94 -14.7,2.65 -21,-1c2.13,-4.52 0.48,-10.06 1,-15c0,-10.21 -1.26,-14.71 -2,-25c-0.74,-10.28 -6.49,-4.5 -9.69,2.31c-3.21,6.8 -5.96,10.82 -8.31,17.69c-1.53,4.47 -2.96,9.1 -3,14c-11.53,-5.45 -8.91,9.55 -4.75,12.75c4.16,3.2 20.53,7.14 19.41,0.57c-1.12,-6.57 -17.31,-4.98 -18.66,-10.32c11.12,-0.76 17.52,7.52 26.25,12.75c8.72,5.23 21.48,7.23 30.98,0.48c9.5,-6.75 -6.73,-16.24 -13.23,-19.23c3.14,-5.08 6.11,0.03 11.23,2.77c5.12,2.74 12.3,5.28 18.77,4.23c1.05,-10.59 -1.49,-22.18 -3.07,-31.93c-1.59,-9.75 -9,-19.73 -13.61,-8.75c-4.61,10.99 -5.42,14.93 -8.32,25.68c-6.68,-2.78 -7.54,2.96 -10,6z" id="svg_114"/>
   </g>
   <g fill="#020306" id="svg_115" stroke="None">
    <path d="m136.66,196c1.04,-2.38 3.89,-3.59 5,-6c-10.8,7.85 -21.61,-1.3 -33,-1c-6.47,1.05 -13.65,-1.49 -18.77,-4.23c-5.12,-2.74 -8.09,-7.85 -11.23,-2.77c6.5,2.99 22.73,12.48 13.23,19.23c-9.5,6.75 -22.26,4.75 -30.98,-0.48c-8.73,-5.23 -15.13,-13.51 -26.25,-12.75c1.35,5.34 17.54,3.75 18.66,10.32c1.12,6.57 -15.25,2.63 -19.41,-0.57c-4.16,-3.2 -6.78,-18.2 4.75,-12.75c0.04,-4.9 1.47,-9.53 3,-14c-5.26,8.41 -13.66,4.16 -21,3c1.13,-2.2 -1.33,-2.84 -2,-4c3.17,8.07 -2.15,22.1 4.31,28.69c6.45,6.6 20.47,2.75 28.69,4.31c1.74,5.52 -6.05,2.33 -6,6c15.72,-2.14 34.47,5.38 50,3c15.53,-2.38 29,-6.14 41,-16z" id="svg_116"/>
   </g>
   <g fill="#020306" id="svg_117" stroke="None">
    <path d="m73.66,180c-2.68,-1.5 -2.43,3.27 -6,3c-3.06,-1.11 -5.41,-3.07 -6,-7c-0.52,4.94 1.13,10.48 -1,15c6.3,3.65 14.73,5.94 21,1c-4.8,-1.47 -8.48,-6.93 -8,-12z" id="svg_118"/>
   </g>
  </g>
 </g>
</svg>